<svg width="18" height="18" viewBox="0 0 18 18" fill="none" xmlns="http://www.w3.org/2000/svg">
<path d="M5.25 9H9V12.75M2.2575 9H2.25M6.0075 12.75H6M9.0075 15.75H9M15.7575 9H15.75M2.25 12.75H3.375M11.625 9H13.125M2.25 15.75H6M9 1.5V6M13.2 15.75H14.55C14.97 15.75 15.1801 15.75 15.3405 15.6683C15.4816 15.5963 15.5963 15.4816 15.6683 15.3405C15.75 15.1801 15.75 14.97 15.75 14.55V13.2C15.75 12.78 15.75 12.5699 15.6683 12.4095C15.5963 12.2684 15.4816 12.1537 15.3405 12.0817C15.1801 12 14.97 12 14.55 12H13.2C12.78 12 12.5699 12 12.4095 12.0817C12.2684 12.1537 12.1537 12.2684 12.0817 12.4095C12 12.5699 12 12.78 12 13.2V14.55C12 14.97 12 15.1801 12.0817 15.3405C12.1537 15.4816 12.2684 15.5963 12.4095 15.6683C12.5699 15.75 12.78 15.75 13.2 15.75ZM13.2 6H14.55C14.97 6 15.1801 6 15.3405 5.91825C15.4816 5.84635 15.5963 5.73161 15.6683 5.59049C15.75 5.43006 15.75 5.22004 15.75 4.8V3.45C15.75 3.02996 15.75 2.81994 15.6683 2.65951C15.5963 2.51839 15.4816 2.40365 15.3405 2.33175C15.1801 2.25 14.97 2.25 14.55 2.25H13.2C12.78 2.25 12.5699 2.25 12.4095 2.33175C12.2684 2.40365 12.1537 2.51839 12.0817 2.65951C12 2.81994 12 3.02996 12 3.45V4.8C12 5.22004 12 5.43006 12.0817 5.59049C12.1537 5.73161 12.2684 5.84635 12.4095 5.91825C12.5699 6 12.78 6 13.2 6ZM3.45 6H4.8C5.22004 6 5.43006 6 5.59049 5.91825C5.73161 5.84635 5.84635 5.73161 5.91825 5.59049C6 5.43006 6 5.22004 6 4.8V3.45C6 3.02996 6 2.81994 5.91825 2.65951C5.84635 2.51839 5.73161 2.40365 5.59049 2.33175C5.43006 2.25 5.22004 2.25 4.8 2.25H3.45C3.02996 2.25 2.81994 2.25 2.65951 2.33175C2.51839 2.40365 2.40365 2.51839 2.33175 2.65951C2.25 2.81994 2.25 3.02996 2.25 3.45V4.8C2.25 5.22004 2.25 5.43006 2.33175 5.59049C2.40365 5.73161 2.51839 5.84635 2.65951 5.91825C2.81994 6 3.02996 6 3.45 6Z" stroke="#2D9CDB" stroke-width="2" stroke-linecap="round" stroke-linejoin="round"/>
</svg>
