<svg width="24" height="24" viewBox="0 0 24 24" fill="none" xmlns="http://www.w3.org/2000/svg">
<path d="M12 14.5449C13.6569 14.5449 15 13.2018 15 11.5449C15 9.88807 13.6569 8.54492 12 8.54492C10.3431 8.54492 9 9.88807 9 11.5449C9 13.2018 10.3431 14.5449 12 14.5449Z" stroke="#524E59" stroke-width="1.5" stroke-miterlimit="10" stroke-linecap="round" stroke-linejoin="round"/>
<path d="M2 12.4253V10.6653C2 9.62535 2.85 8.76535 3.9 8.76535C5.71 8.76535 6.45 7.48535 5.54 5.91535C5.02 5.01535 5.33 3.84535 6.24 3.32535L7.97 2.33535C8.76 1.86535 9.78 2.14535 10.25 2.93535L10.36 3.12535C11.26 4.69535 12.74 4.69535 13.65 3.12535L13.76 2.93535C14.23 2.14535 15.25 1.86535 16.04 2.33535L17.77 3.32535C18.68 3.84535 18.99 5.01535 18.47 5.91535C17.56 7.48535 18.3 8.76535 20.11 8.76535C21.15 8.76535 22.01 9.61535 22.01 10.6653V12.4253C22.01 13.4653 21.16 14.3253 20.11 14.3253C18.3 14.3253 17.56 15.6053 18.47 17.1753C18.99 18.0853 18.68 19.2453 17.77 19.7653L16.04 20.7553C15.25 21.2253 14.23 20.9453 13.76 20.1553L13.65 19.9653C12.75 18.3953 11.27 18.3953 10.36 19.9653L10.25 20.1553C9.78 20.9453 8.76 21.2253 7.97 20.7553L6.24 19.7653C5.33 19.2453 5.02 18.0753 5.54 17.1753C6.45 15.6053 5.71 14.3253 3.9 14.3253C2.85 14.3253 2 13.4653 2 12.4253Z" stroke="#524E59" stroke-width="1.5" stroke-miterlimit="10" stroke-linecap="round" stroke-linejoin="round"/>
</svg>
